<svg xmlns="http://www.w3.org/2000/svg" width="800" height="480" viewBox="0 0 800 480">
  <defs>
    <linearGradient id="bg" x1="0" y1="0" x2="1" y2="1">
      <stop offset="0" stop-color="#d49a67"/>
      <stop offset="1" stop-color="#3b2f2a"/>
    </linearGradient>
    <radialGradient id="glow" cx="28%" cy="12%" r="70%">
      <stop offset="0" stop-color="#ffffff" stop-opacity="0.18"/>
      <stop offset="1" stop-color="#ffffff" stop-opacity="0"/>
    </radialGradient>
  </defs>

  <rect width="800" height="480" fill="url(#bg)"/>
  <rect width="800" height="480" fill="url(#glow)"/>

  <g transform="translate(140 118)">
    <path d="M90 254 C90 210 148 188 220 188 L440 188 C512 188 570 210 570 254 C570 320 490 370 330 370 C170 370 90 320 90 254 Z" fill="#ffffff" opacity="0.18"/>
    <path d="M140 252 C140 222 184 206 236 206 L424 206 C476 206 520 222 520 252 C520 298 458 332 330 332 C202 332 140 298 140 252 Z" fill="#ffffff" opacity="0.16"/>

    <g fill="#ffffff" opacity="0.28">
      <path d="M188 156 C188 132 208 112 232 112 C256 112 276 132 276 156 C276 180 256 200 232 200 C208 200 188 180 188 156 Z"/>
      <path d="M286 144 C286 122 304 104 326 104 C348 104 366 122 366 144 C366 166 348 184 326 184 C304 184 286 166 286 144 Z"/>
      <path d="M390 156 C390 132 410 112 434 112 C458 112 478 132 478 156 C478 180 458 200 434 200 C410 200 390 180 390 156 Z"/>
    </g>

    <path d="M208 86 C250 70 300 62 330 62 C360 62 410 70 452 86" fill="none" stroke="#ffffff" stroke-width="10" opacity="0.20" stroke-linecap="round"/>

    <text x="330" y="430" text-anchor="middle" font-family="ui-sans-serif, system-ui, sans-serif" font-size="18" font-weight="700" letter-spacing="4" fill="#ffffff" opacity="0.70">SNACK</text>
  </g>
</svg>

